<?xml version="1.0" encoding="UTF-8"?>
<svg xmlns="http://www.w3.org/2000/svg" width="512" height="512" viewBox="0 0 512 512">
  <rect width="512" height="512" rx="96" fill="#202124"/>
  <circle cx="256" cy="256" r="176" fill="#3b3d40"/>
  <path d="M292 94c-57 19-111 72-137 132l-45 17 54 54 17-45c60-26 113-80 132-137l8-29-29 8z"
        fill="#f2f2f2"/>
  <circle cx="255" cy="174" r="31" fill="#2f80ed"/>
  <path d="M166 299l-49 20-26 72 72-26 20-49-17-17z" fill="#ffb000"/>
  <path d="M185 318l-34 14-18 49 49-18 14-34-11-11z" fill="#ff4d00"/>
  <path d="M309 216l69 69-76 18-47-47 54-40z" fill="#d7d7d7"/>
  <path d="M216 309l-69-69 18-76 47 47 4 98z" fill="#d7d7d7"/>
  <path d="M104 416h304" stroke="#f2f2f2" stroke-width="22" stroke-linecap="round"/>
</svg>
